# xmcd
#
# Track frame offsets:
#	150
#	9442
#	20356
#	29634
#	39357
#	51150
#	64805
#	76703
#	80927
#	92748
#	105823
#	118902
#	129347
#	138362
#	147957
#	158926
#	167213
#	178097
#	189057
#	194933
#	206269
#	216651
#	227515
#	233089
#	246275
#	255537
#	258031
#	266458
#	275680
#	286644
#	300276
#	309052
#
# Disc length: 4240 seconds
#
# Revision: 0
# Processed by: cddbd v1.5.2PL0 Copyright (c) Steve Scherf et al.
# Submitted via: EZCDAudioConverter 2.1.7.1
#
DISCID=b3108e20
DTITLE=V/A - Halloween Nugets 1/3
DYEAR=1900
DGENRE=
TTITLE0=The Mystrys - Witch Girl
TTITLE1=Teddy Durant - The Beast Of Sunset Strip
TTITLE2=The Ebb-Tides - Seance
TTITLE3=Bela La Goldensetin - Why Do I Love You
TTITLE4=Phantom Five - Graveyard
TTITLE5=Murray Schafe and The Aristocrats - Tombstone No. 9
TTITLE6=Jackie Morningstar - Rockin' In The Graveyard
TTITLE7=Halloween Convention Of Spooks
TTITLE8=Round Robin - I'm The Wolfman
TTITLE9=Griz Green - Jam At The Mortuary
TTITLE10=Grim Reapers - Two Souls
TTITLE11=The Connoissurs - Count Macabre
TTITLE12=The Madmen - Haunted
TTITLE13=The Vettes - Devil's Driver Theme
TTITLE14=Terry Gale - The Voodoo
TTITLE15=Glenda and Glen - Voodoo Doll
TTITLE16=Baron Daemon and The Vampires - Ghost Guitars
TTITLE17=Jim Burgett - Jekyll And Hyde
TTITLE18=Atom Age Vampire
TTITLE19=Mann Drake - Vampire's Ball
TTITLE20=Bobby Bare - Vampira
TTITLE21=Johnny Anderson - Zoola Zooky
TTITLE22=Frankenstein and Dracula
TTITLE23=Peter and The Wolves - Mr. Frankenstein
TTITLE24=Frankie Stein and His Ghouls - Dr. Spook Twist
TTITLE25=The Wolfman
TTITLE26=Gary Warren - Werewolf
TTITLE27=The Frantics - Werewolf
TTITLE28=Chance Halliday - Bury Me Deep
TTITLE29=The Weirdos - E.S.P. Theme For Shock Theatre
TTITLE30=Kenny and The Fiends - The Raven
TTITLE31=The Executioners - The Guillotine
EXTD=
EXTT0=
EXTT1=
EXTT2=
EXTT3=
EXTT4=
EXTT5=
EXTT6=
EXTT7=
EXTT8=
EXTT9=
EXTT10=
EXTT11=
EXTT12=
EXTT13=
EXTT14=
EXTT15=
EXTT16=
EXTT17=
EXTT18=
EXTT19=
EXTT20=
EXTT21=
EXTT22=
EXTT23=
EXTT24=
EXTT25=
EXTT26=
EXTT27=
EXTT28=
EXTT29=
EXTT30=
EXTT31=
PLAYORDER=
